<?xml version="1.0" encoding="UTF-8"?><svg id="Layer_1" xmlns="http://www.w3.org/2000/svg" viewBox="0 0 467.94 468"><defs><style>.cls-1{fill:#0f8bb9;fill-rule:evenodd;}</style></defs><path class="cls-1" d="M319.12,145H163.07l42.56,42.56h224.14l26.59-26.6c.81,2.45,1.57,4.93,2.3,7.42l-141.59,139.58L152.17,145.02h-60.02l194.88,192.56,3.72,3.2h53.91l2.48-3.12,120.38-118.67c.21,3.37,.36,6.76,.43,10.17l-113.44,111.84h60.19l44.76-44.13c-27.47,98.7-117.99,171.13-225.44,171.13C104.77,468,0,363.23,0,234c0-15.9,1.59-31.43,4.62-46.44H24.55l151.83,150.03,3.72,3.2h53.91l2.48-3.12,20.22-19.58-31.21-28.38-19.07,18.25-121.85-120.41h38.78l-42.56-42.56H17.54C52.56,59.91,136.28,0,234,0s181.44,59.91,216.46,145h-131.35Zm-42.56,110.67h82.28l28.37-28.38H248.19l28.37,28.38Z"/></svg>