<?xml version="1.0" standalone="no"?>
<!DOCTYPE svg PUBLIC "-//W3C//DTD SVG 20010904//EN"
 "http://www.w3.org/TR/2001/REC-SVG-20010904/DTD/svg10.dtd">
<svg version="1.0" xmlns="http://www.w3.org/2000/svg"
 width="500.000000pt" height="500.000000pt" viewBox="0 0 500.000000 500.000000"
 preserveAspectRatio="xMidYMid meet">
<metadata>
Created by potrace 1.14, written by Peter Selinger 2001-2017
</metadata>
<g transform="translate(0.000000,500.000000) scale(0.100000,-0.100000)"
fill="#000000" stroke="none">
<path d="M2319 4856 c-2 -2 -40 -7 -84 -11 -44 -4 -116 -13 -160 -22 -44 -8
-90 -17 -102 -19 -12 -2 -77 -20 -143 -39 -535 -154 -1004 -502 -1318 -979
-57 -86 -202 -358 -202 -378 0 -5 139 -8 308 -8 l308 0 212 -211 c117 -116
212 -213 212 -215 0 -2 -87 -4 -192 -4 l-193 0 237 -233 c130 -127 405 -398
612 -602 207 -203 380 -371 385 -373 4 -1 50 38 102 87 l94 90 35 -33 c19 -18
57 -53 84 -77 27 -24 76 -68 107 -98 32 -29 65 -58 73 -65 19 -14 23 -9 -109
-137 l-110 -107 -272 0 -272 0 -101 99 c-56 54 -336 329 -622 611 -286 282
-594 586 -686 676 l-166 162 -87 0 c-48 0 -90 -4 -93 -8 -3 -5 -8 -31 -12 -58
-3 -27 -8 -58 -10 -69 -29 -153 -25 -539 7 -720 19 -103 20 -109 30 -150 5
-22 11 -48 14 -58 50 -212 176 -495 317 -711 117 -179 369 -447 540 -575 193
-143 401 -258 613 -336 103 -39 326 -98 405 -109 25 -3 56 -8 70 -11 148 -29
526 -27 710 4 142 24 182 33 300 68 673 199 1240 707 1507 1353 35 83 93 248
93 262 0 5 -95 -84 -211 -199 -116 -114 -217 -214 -225 -221 -10 -9 -82 -12
-314 -10 l-300 3 23 25 c24 25 777 765 1000 982 117 115 117 115 117 162 0 27
-4 46 -10 44 -9 -3 -232 -220 -993 -969 l-251 -246 -271 -1 -272 0 -160 157
c-89 86 -309 302 -490 481 -521 513 -1284 1264 -1291 1270 -4 3 -20 20 -37 38
l-29 32 304 0 304 -1 230 -229 c127 -125 304 -299 392 -387 89 -87 358 -351
599 -588 240 -236 440 -431 445 -433 4 -2 53 41 108 95 141 138 942 925 1153
1134 l176 174 -10 33 c-5 17 -13 32 -16 32 -3 0 -65 -59 -136 -130 l-130 -130
-1135 0 -1136 0 -216 215 -216 215 1454 0 c800 0 1454 3 1454 7 0 3 -30 67
-67 141 -58 118 -188 328 -248 401 -236 287 -486 494 -780 647 -138 71 -382
166 -489 189 -11 2 -51 11 -87 19 -36 8 -83 17 -105 20 -21 3 -52 9 -68 12
-16 3 -43 8 -60 10 -44 6 -442 15 -447 10z m1573 -2429 l-143 -144 -419 0
-418 -1 -143 144 -144 144 705 0 705 0 -143 -143z"/>
</g>
</svg>
